<svg width="35" height="35" viewBox="0 0 35 35" fill="none" xmlns="http://www.w3.org/2000/svg">
<path d="M14.2188 17.5C14.2188 15.6879 15.6879 14.2188 17.5 14.2188C19.3121 14.2188 20.7813 15.6879 20.7813 17.5C20.7813 19.3121 19.3121 20.7813 17.5 20.7813C15.6879 20.7813 14.2188 19.3121 14.2188 17.5Z" fill="#1C274C"/>
<path fill-rule="evenodd" clip-rule="evenodd" d="M2.9165 17.5C2.9165 19.8908 3.53624 20.696 4.77572 22.3063C7.25061 25.5215 11.4012 29.1667 17.4998 29.1667C23.5984 29.1667 27.749 25.5215 30.2239 22.3063C31.4634 20.696 32.0832 19.8908 32.0832 17.5C32.0832 15.1092 31.4634 14.3041 30.2239 12.6939C27.749 9.47857 23.5984 5.83337 17.4998 5.83337C11.4012 5.83337 7.25061 9.47857 4.77572 12.6939C3.53624 14.3041 2.9165 15.1092 2.9165 17.5ZM17.4998 12.0313C14.4795 12.0313 12.0311 14.4797 12.0311 17.5C12.0311 20.5204 14.4795 22.9688 17.4998 22.9688C20.5202 22.9688 22.9686 20.5204 22.9686 17.5C22.9686 14.4797 20.5202 12.0313 17.4998 12.0313Z" fill="#1C274C"/>
</svg>
