<svg width="40" height="40" viewBox="0 0 40 40" fill="none" xmlns="http://www.w3.org/2000/svg">
<path d="M0 40V24.1764H6.8423L9.23686 24.2646H28.8707L31.149 24.1764H40V40H31.5349V33.3314H8.46506V40H0ZM5.90724 0H35.0155V30.6657H26.0087V4.35562L30.068 8.97581H10.7062L14.3772 5.5192C14.6029 6.73666 14.7386 7.97388 14.7829 9.21764C14.8225 10.4049 14.8423 11.5164 14.8423 12.5519C14.8423 15.9659 14.571 18.8108 14.0284 21.0868C13.4859 23.3627 12.6613 25.0697 11.5547 26.2077C10.4465 27.3457 9.06782 27.9146 7.41868 27.9146L3.68089 24.3556C4.6341 22.9938 5.349 21.156 5.8256 18.8421C6.30221 16.5282 6.53803 13.6994 6.53309 10.3556C6.53309 8.7852 6.48114 7.13987 6.37724 5.41963C6.27334 3.69938 6.11668 1.89284 5.90724 0Z" fill="#35ADE1"/>
</svg>
