<svg width="98" height="98" viewBox="0 0 98 98" fill="none" xmlns="http://www.w3.org/2000/svg">
<path d="M39.4668 46.1384L56.7919 9.07717C57.3328 7.97869 58.1031 7.00906 59.0508 6.23374C59.9764 5.43016 61.0631 4.8338 62.2381 4.48469L78.5819 0.00198364L80.2946 6.2463L63.9521 10.731C63.6863 10.84 63.4405 10.9924 63.2247 11.182C63.0014 11.3621 62.8094 11.5779 62.6566 11.8207L45.3362 48.882L39.4674 46.1397L39.4668 46.1384Z" fill="#E2DFDA"/>
<path d="M69.8255 28.5369L47.1203 29.0183L24.4159 28.5369C24.107 28.5242 23.7989 28.5779 23.5126 28.6943C23.2262 28.8107 22.9681 28.9871 22.7556 29.2117C22.5432 29.4363 22.3814 29.7038 22.2811 29.9962C22.1808 30.2886 22.1443 30.5991 22.1742 30.9068L27.1634 95.5785C27.2254 96.2331 27.5265 96.842 28.0091 97.2887C28.4916 97.7354 29.1219 97.9886 29.7793 98H64.4627C65.12 97.9885 65.7501 97.7352 66.2325 97.2885C66.715 96.8418 67.016 96.233 67.078 95.5785L72.0679 30.9068C72.0976 30.5991 72.061 30.2886 71.9606 29.9962C71.8603 29.7038 71.6984 29.4363 71.4859 29.2117C71.2734 28.9871 71.0153 28.8107 70.7289 28.6943C70.4425 28.5779 70.1344 28.5242 69.8255 28.5369Z" fill="#ED4D55"/>
<path d="M26.3415 84.9123L69.2126 67.9178L70.6673 49.0261L24.9707 67.1434L26.3415 84.9123Z" fill="#E5EFF3"/>
<path opacity="0.4" d="M69.8255 28.5369L47.1203 29.0183L24.4159 28.5369C24.107 28.5242 23.7989 28.5779 23.5126 28.6943C23.2262 28.8107 22.9681 28.9871 22.7556 29.2117C22.5432 29.4363 22.3814 29.7038 22.2811 29.9962C22.1808 30.2886 22.1443 30.5991 22.1742 30.9068L22.68 37.4666C29.3403 38.4697 50.9676 42.598 70.1389 55.896L72.0679 30.9062C72.0975 30.5985 72.0609 30.2881 71.9604 29.9957C71.86 29.7034 71.6981 29.4359 71.4856 29.2114C71.2732 28.9869 71.015 28.8106 70.7287 28.6942C70.4423 28.5779 70.1343 28.5242 69.8255 28.5369Z" fill="#C52C58"/>
<path d="M76.5324 34.76C76.5304 35.0278 76.4756 35.2926 76.3713 35.5393C76.2669 35.786 76.1149 36.0097 75.9241 36.1976C75.7332 36.3855 75.5072 36.534 75.2589 36.6345C75.0106 36.735 74.745 36.7856 74.4772 36.7835H19.7635C19.2228 36.7875 18.7025 36.5766 18.3173 36.1971C17.932 35.8177 17.7132 35.3008 17.709 34.76V26.2595C17.7134 25.7188 17.9322 25.202 18.3175 24.8227C18.7028 24.4434 19.2229 24.2326 19.7635 24.2366H74.4772C74.7449 24.2345 75.0106 24.285 75.2588 24.3855C75.507 24.486 75.733 24.6344 75.9238 24.8223C76.1147 25.0101 76.2666 25.2337 76.3711 25.4803C76.4755 25.7269 76.5303 25.9917 76.5324 26.2595V34.76Z" fill="#BC2A38"/>
</svg>
