<svg width="98" height="98" viewBox="0 0 98 98" fill="none" xmlns="http://www.w3.org/2000/svg">
<g clip-path="url(#clip0_543_1180)">
<path d="M86.1075 20.3951L75.5841 14.2556C69.6236 5.33028 59.6871 0 48.9995 0C37.6712 0 27.277 5.97092 21.5182 15.6808C10.1808 18.4874 2.12988 28.7121 2.12988 40.4782C2.12988 47.4 4.85934 53.887 9.81944 58.7408C10.4166 59.3254 11.2177 59.6519 12.0539 59.6519H85.9451C86.7816 59.6519 87.5826 59.3254 88.1796 58.7408C93.1395 53.8868 95.8692 47.3998 95.8692 40.4782C95.8692 32.5974 92.3115 25.2761 86.1075 20.3951Z" fill="#D7EBFF"/>
<path d="M85.9456 59.6521C86.7821 59.6521 87.5831 59.3256 88.1801 58.741C93.14 53.887 95.8696 47.4 95.8696 40.4784C95.8696 32.5974 92.312 25.2763 86.1079 20.3953L75.5846 14.2557C69.624 5.33028 59.6876 0 49 0V59.6521H85.9456Z" fill="#BDDEFF"/>
<path d="M70.7953 39.4775C70.5206 39.4775 70.2438 39.4421 69.9715 39.3694C68.8688 39.076 68.0054 38.2146 67.71 37.1119C66.7779 33.6479 64.4123 30.735 61.2148 29.1207C60.2993 28.6589 59.6627 27.7849 59.5004 26.772C59.3402 25.7587 59.6732 24.7289 60.3993 24.005L81.639 2.82744C85.3672 -0.896561 91.436 -0.900772 95.1686 2.83165C97.0036 4.66877 97.9958 7.11532 97.9604 9.72438C97.9292 12.273 96.9035 14.699 95.1454 16.3863L73.0589 38.5391C72.4513 39.1468 71.6336 39.4775 70.7953 39.4775Z" fill="#FFDFB3"/>
<path d="M67.7098 37.1119C68.0053 38.2146 68.8686 39.076 69.9713 39.3694C70.2438 39.4423 70.5204 39.4775 70.7951 39.4775C71.6336 39.4775 72.4511 39.1466 73.0586 38.5393L95.1456 16.3859C96.9036 14.6986 97.9292 12.2726 97.9606 9.724C97.996 7.11513 97.0036 4.66839 95.1687 2.83127L65.4238 32.576C66.4716 33.9059 67.2604 35.4423 67.7098 37.1119Z" fill="#FFCC99"/>
<path d="M71.3697 44.7391C69.6055 44.7391 68.174 43.3076 68.174 41.5434C68.174 28.197 55.7326 27.7082 54.3137 27.6955C52.5535 27.681 51.1306 26.2454 51.1367 24.4874C51.145 22.7274 52.566 21.3043 54.3261 21.3043C61.327 21.3043 74.5652 25.534 74.5652 41.5434C74.5652 43.3078 73.1339 44.7391 71.3697 44.7391Z" fill="#D7EBFF"/>
<path d="M11.1415 66.0434L9.01074 72.4352L11.936 89.9902C12.7101 94.6316 16.6859 98 21.392 98H76.6087C81.3148 98 85.2907 94.6316 86.0646 89.99L88.9898 72.4348L86.8591 66.0436H11.1415V66.0434Z" fill="#36D9D9"/>
<path d="M49 98H76.6082C81.3144 98 85.2902 94.6316 86.0641 89.99L88.9894 72.4348L86.8586 66.0436H49V98Z" fill="#43BFBF"/>
<path d="M90.8513 54.3906C90.244 53.6747 89.3534 53.2609 88.413 53.2609H9.58695C8.64657 53.2609 7.75615 53.6749 7.14862 54.3906C6.5411 55.1083 6.28117 56.055 6.43487 56.9807L9.01043 72.4346H88.9897L91.5653 56.9807C91.719 56.0549 91.4589 55.1083 90.8513 54.3906Z" fill="#FFC033"/>
<path d="M88.413 53.2609H49V72.4348H88.9895L91.5651 56.9809C91.7192 56.055 91.4591 55.1084 90.8514 54.3908C90.244 53.6747 89.3534 53.2609 88.413 53.2609Z" fill="#F9A926"/>
<path d="M94.8043 59.6521H3.19572C1.43153 59.6521 0 58.2208 0 56.4566C0 54.6924 1.43153 53.2609 3.19572 53.2609H94.8045C96.5687 53.2609 98.0002 54.6924 98.0002 56.4566C98 58.2208 96.5685 59.6521 94.8043 59.6521Z" fill="#FFDFB3"/>
<path d="M94.8043 53.2609H49V59.6521H94.8043C96.5685 59.6521 98 58.2206 98 56.4564C98 54.6922 96.5685 53.2609 94.8043 53.2609Z" fill="#FFCC99"/>
</g>
<defs>
<clipPath id="clip0_543_1180">
<rect width="98" height="98" fill="white"/>
</clipPath>
</defs>
</svg>
