<svg width="98" height="98" viewBox="0 0 98 98" fill="none" xmlns="http://www.w3.org/2000/svg">
<g clip-path="url(#clip0_543_1130)">
<path d="M59.8343 24.4607C59.6354 24.4607 59.4329 24.4278 59.2342 24.3583C58.2858 24.027 57.7855 22.9894 58.117 22.0411L65.391 1.21964C65.7223 0.27122 66.7599 -0.229306 67.7082 0.1024C68.6566 0.433724 69.1569 1.47133 68.8254 2.41956L61.5516 23.2411C61.2896 23.991 60.5863 24.4607 59.8343 24.4607Z" fill="#808080"/>
<path d="M65.3162 27.2809C64.8987 27.2809 64.4793 27.1381 64.1369 26.846C63.3724 26.1941 63.2811 25.0458 63.9329 24.2816L80.2412 5.15609C80.8932 4.39199 82.0414 4.30031 82.8057 4.95205C83.5702 5.60397 83.6615 6.75222 83.0097 7.5165L66.7014 26.642C66.3413 27.0638 65.8305 27.2809 65.3162 27.2809Z" fill="#808080"/>
<path d="M78.4385 36.0157L48.2735 40.6701L19.9688 36.0157C21.407 33.1804 23.2431 30.5828 25.4089 28.2955C25.9814 27.6892 26.578 27.1046 27.1964 26.5469C28.283 25.5573 29.4376 24.6429 30.6526 23.8086C31.3924 23.2968 32.1563 22.8165 32.9398 22.3704C34.6593 21.3808 36.4785 20.5465 38.3776 19.8844C39.2799 19.5667 40.199 19.2901 41.1354 19.0525C43.7161 18.3977 46.4203 18.0509 49.2048 18.0509C51.919 18.0509 54.5554 18.3807 57.0753 19.0041C58.0187 19.2346 58.9428 19.5087 59.8499 19.8214C60.951 20.1973 62.0254 20.6339 63.0709 21.1239C63.8106 21.4683 64.5334 21.8419 65.2416 22.2396C66.5464 22.9746 67.7932 23.7944 68.9767 24.6942C69.1465 24.8229 69.3138 24.9538 69.4812 25.0847L69.486 25.0872C70.0583 25.5358 70.6138 26.0065 71.1522 26.4915C74.1284 29.1785 76.6073 32.4043 78.4385 36.0157Z" fill="#F7B239"/>
<path d="M56.9654 18.98C54.4769 18.3752 51.879 18.0505 49.2048 18.0505C36.435 18.0505 25.3725 25.3584 19.9688 36.0157H35.4914C39.7632 27.5908 47.5729 21.2631 56.9654 18.98Z" fill="#E09B2D"/>
<path d="M32.9222 36.0157V36.0473L32.8931 37.2575L30.4676 37.1993L30.4992 36.0157V35.9866C30.5938 32.0477 27.5039 29.569 25.6532 28.4435L25.4082 28.2955C25.9807 27.6892 26.5773 27.1046 27.1957 26.5468C32.2697 29.763 32.9707 33.8304 32.9222 36.0157Z" fill="#B27214"/>
<path d="M40.1524 36.0157C40.1524 36.0375 40.1499 36.0568 40.1499 36.0787L40.0869 37.2889L37.6664 37.1628L37.7271 36.0155L37.7296 35.9525C38.1516 27.7958 30.7394 23.8545 30.6644 23.8157L30.6523 23.8084C31.3921 23.2966 32.156 22.8163 32.9395 22.3702C35.3282 23.9881 40.5185 28.4023 40.1524 36.0157Z" fill="#B27214"/>
<path d="M65.2411 22.2393C63.7277 26.1709 60.0774 29.3967 54.6809 31.5772C51.9595 32.6759 49.4492 33.2531 48.0594 33.5199C48.086 34.3277 48.0642 35.157 47.9744 36.0157C47.9719 36.0593 47.9672 36.1055 47.9624 36.1491L47.829 37.3546L45.418 37.0878L45.5369 36.0157L45.5514 35.8823C46.558 26.7118 39.0538 20.4397 38.9785 20.3765L38.377 19.8842C39.2792 19.5665 40.1984 19.2899 41.1347 19.0523C42.0443 19.9037 43.7759 21.7058 45.2823 24.2768C50.1695 24.1604 55.3187 20.4033 57.0746 19.0039C58.0181 19.2344 58.9422 19.5085 59.8492 19.8212L59.3108 20.299C59.0295 20.5488 52.932 25.8896 46.4755 26.6221C47.0601 27.9705 47.5378 29.4671 47.8144 31.0922C51.1663 30.4178 60.5454 27.9609 63.0268 21.2401L63.0704 21.1237C63.8102 21.4681 64.5329 21.8415 65.2411 22.2393Z" fill="#B27214"/>
<path d="M71.1521 26.4911L71.1158 26.6634C70.3978 30.1171 66.7136 33.5808 63.0099 36.0159C62.4376 36.3943 61.8626 36.7459 61.2999 37.0684L60.2497 37.6723L55.6299 37.1128L59.0394 35.5693L60.0921 34.9655C64.7247 32.2999 68.2003 28.766 68.7387 26.1709L68.9764 24.6938C69.1462 24.8225 69.3135 24.9534 69.481 25.0843L69.4858 25.0868C70.0583 25.5355 70.6137 26.0059 71.1521 26.4911Z" fill="#B27214"/>
<path d="M80.5482 78.9434L78.5327 98H19.4686L17.4531 78.9434L48.3541 73.7366L80.5482 78.9434Z" fill="#E6E6E6"/>
<path d="M97.0463 19.2566C96.2281 18.6722 95.0925 18.8629 94.5089 19.6804L82.8502 36.0159H78.438H19.9683L17.2276 40.6703L14.7998 53.8429L47.5455 61.1247L83.2018 53.8429L84.698 39.6897L97.4703 21.7942C98.0537 20.9762 97.864 19.8402 97.0463 19.2566Z" fill="#E6E6E6"/>
<path d="M86.2556 53.8427L82.8116 78.9434H80.5486H17.4536H15.1883L11.7441 53.8427H14.8001H83.2021H86.2556Z" fill="#F95428"/>
<path d="M14.8001 53.8427H11.7441L15.1883 78.9434H17.4536H34.1067L30.6625 53.8427H14.8001Z" fill="#E54728"/>
<path d="M30.5505 78.9435H17.4531L19.4686 98H32.566L30.5505 78.9435Z" fill="#CCCCCC"/>
<path d="M27.8972 53.8427L26.0126 36.0157H15.1501L3.49122 19.6804C2.90762 18.8627 1.77182 18.6734 0.953943 19.2566C0.136066 19.8402 -0.053617 20.9762 0.529979 21.7941L13.304 39.6918L14.8001 53.8427H27.8972Z" fill="#CCCCCC"/>
</g>
<defs>
<clipPath id="clip0_543_1130">
<rect width="98" height="98" fill="white"/>
</clipPath>
</defs>
</svg>
