<svg width="80" height="98" viewBox="0 0 80 98" fill="none" xmlns="http://www.w3.org/2000/svg">
<path d="M33.4503 91.6842L4.17849 19.5083L2.58917 15.5909C1.26249 12.3183 2.98706 8.61658 6.3356 7.49779C27.3724 0.469872 50.7452 0.171453 73.0092 7.99851C76.3298 9.16536 77.9806 12.8961 76.6092 16.1374L75.1506 19.5865L44.6259 91.7669C42.5269 96.7294 35.4755 96.6768 33.4503 91.6842Z" fill="#ECB67C"/>
<path d="M3.36149 17.5154L2.58135 15.5908C1.25468 12.3183 2.97924 8.61653 6.32779 7.49774C27.3646 0.469814 50.7374 0.170279 73.0025 7.99734C76.3231 9.16419 77.9739 12.895 76.6025 16.1362L75.9062 17.7837C75.9062 17.7837 56.0564 10.8809 39.6098 10.8809C23.1633 10.8809 3.36149 17.5154 3.36149 17.5154Z" fill="#E1AC77"/>
<path d="M39.0615 97.5955C39.0391 97.5955 39.0179 97.5955 38.9966 97.5955C35.6224 97.5709 32.7399 95.6128 31.4713 92.4866L0.610187 16.3944C-0.252656 14.2664 -0.199007 11.945 0.76219 9.85826C1.71333 7.79169 3.49937 6.1923 5.66095 5.47028C28.0032 -1.99353 51.5391 -1.81582 73.7216 5.98106C75.8597 6.73214 77.6111 8.35276 78.5276 10.426C79.444 12.4982 79.463 14.8833 78.5812 16.9689L46.5968 92.5984C45.2902 95.6854 42.4078 97.5955 39.0615 97.5955ZM35.4335 90.8794C36.0482 92.395 37.3916 93.307 39.0279 93.3204C40.6854 93.3394 42.021 92.4408 42.6581 90.9331L74.6414 15.3047C75.0728 14.2865 75.0628 13.1677 74.6157 12.1551C74.1675 11.1425 73.346 10.3813 72.3021 10.0147C51.0239 2.53416 28.4469 2.36539 7.01556 9.5252C5.95378 9.8795 5.11217 10.6328 4.6461 11.6465C4.1845 12.6502 4.15768 13.7645 4.57345 14.7883L35.4335 90.8794Z" fill="black"/>
<path d="M34.0699 92.3972L8.00353 28.1255C7.90517 27.8829 8.02253 27.6046 8.26618 27.5074C27.7673 19.7273 50.2012 19.2757 71.0883 27.9712C71.3297 28.0718 71.4448 28.3535 71.3431 28.5938L44.3267 92.4732C42.401 97.0277 35.9285 96.9796 34.0699 92.3972Z" fill="#F8CC77"/>
<path d="M9.5446 32.0731L7.94298 28.1255C7.84462 27.8829 7.96198 27.6046 8.20563 27.5074C27.7068 19.7273 50.1407 19.2757 71.0277 27.9712C71.2691 28.0718 71.3842 28.3535 71.2825 28.5938L69.6418 32.4743C69.6418 32.4743 54.2816 27.0167 39.6156 27.0167C24.9495 27.0167 9.5446 32.0731 9.5446 32.0731Z" fill="#E9BB6D"/>
<path d="M39.2174 98C39.1973 98 39.1772 98 39.156 98C35.9874 97.9765 33.2781 96.1379 32.0878 93.2018L6.02034 28.929C5.75769 28.2796 5.76439 27.5665 6.03934 26.9216C6.31429 26.2767 6.82395 25.7794 7.47331 25.5212C28.3123 17.2068 51.1977 17.3745 71.9071 25.9984C72.5509 26.2655 73.0538 26.7707 73.3198 27.4201C73.5858 28.0695 73.5814 28.7825 73.3087 29.4274L46.2945 93.3058C45.0684 96.205 42.3592 98 39.2174 98ZM36.0499 91.5935C36.5864 92.9168 37.7589 93.7137 39.1872 93.7238C40.5888 93.6947 41.8004 92.9548 42.3558 91.6393L68.7128 29.3179C49.9694 21.9558 29.4691 21.8038 10.6173 28.8887L36.0499 91.5935Z" fill="black"/>
<path d="M48.7047 47.8356C53.7225 47.8356 57.7902 43.7679 57.7902 38.7501C57.7902 33.7323 53.7225 29.6645 48.7047 29.6645C43.6869 29.6645 39.6191 33.7323 39.6191 38.7501C39.6191 43.7679 43.6869 47.8356 48.7047 47.8356Z" fill="#E9785A"/>
<path d="M48.7061 49.9736C42.5175 49.9736 37.4824 44.9385 37.4824 38.7499C37.4824 32.5614 42.5175 27.5262 48.7061 27.5262C54.8946 27.5262 59.9297 32.5614 59.9297 38.7499C59.9297 44.9385 54.8946 49.9736 48.7061 49.9736ZM48.7061 31.8025C44.8747 31.8025 41.7586 34.9196 41.7586 38.7499C41.7586 42.5802 44.8758 45.6974 48.7061 45.6974C52.5363 45.6974 55.6535 42.5802 55.6535 38.7499C55.6535 34.9196 52.5375 31.8025 48.7061 31.8025Z" fill="black"/>
<path d="M33.1928 57.6421C33.1928 62.6604 29.1244 66.7276 24.1072 66.7276C23.8468 66.7276 23.5875 66.7164 23.3327 66.6952L17.2324 51.7027C18.8989 49.7759 21.3611 48.5576 24.1072 48.5576C29.1256 48.5565 33.1928 52.6248 33.1928 57.6421Z" fill="#EC6D57"/>
<path d="M24.108 68.8669C23.7849 68.8669 23.4664 68.8535 23.1501 68.8267C22.3499 68.7574 21.6558 68.2466 21.3529 67.5022L15.2515 52.5098C14.9486 51.7654 15.0883 50.9138 15.6148 50.3057C17.7495 47.8368 20.8455 46.4207 24.108 46.4207C30.2965 46.4207 35.3316 51.4558 35.3316 57.6444C35.3316 63.8329 30.2965 68.8669 24.108 68.8669ZM19.7546 52.2281L24.773 64.5594C28.2936 64.2241 31.0565 61.25 31.0565 57.6433C31.0565 53.8119 27.9393 50.6958 24.1091 50.6958C22.5119 50.6947 20.9796 51.2435 19.7546 52.2281Z" fill="black"/>
<path d="M47.7516 84.3735C43.5659 83.5609 40.4062 79.8771 40.4062 75.4545C40.4062 70.4361 44.4746 66.3689 49.4918 66.3689C51.374 66.3689 53.122 66.9412 54.5716 67.9202L47.7516 84.3735Z" fill="#E9785A"/>
<path d="M47.7549 86.5116C47.6197 86.5116 47.4833 86.4993 47.347 86.4725C42.0883 85.4532 38.2715 80.8193 38.2715 75.4556C38.2715 69.267 43.3066 64.2319 49.4951 64.2319C51.7439 64.2319 53.9144 64.8958 55.772 66.1499C56.6136 66.7188 56.9388 67.8018 56.5499 68.7406L49.7299 85.1939C49.3934 86.0019 48.6055 86.5116 47.7549 86.5116ZM49.4951 68.5059C45.6638 68.5059 42.5477 71.6231 42.5477 75.4545C42.5477 78.1894 44.1493 80.617 46.5311 81.7414L51.849 68.9139C51.1001 68.6456 50.3066 68.5059 49.4951 68.5059Z" fill="black"/>
</svg>
