<svg width="98" height="98" viewBox="0 0 98 98" fill="none" xmlns="http://www.w3.org/2000/svg">
<g clip-path="url(#clip0_543_1157)">
<path d="M43.7544 73.9775C53.9654 73.9775 62.2431 65.6998 62.2431 55.4887C62.2431 45.2777 53.9654 37 43.7544 37C33.5433 37 25.2656 45.2777 25.2656 55.4887C25.2656 65.6998 33.5433 73.9775 43.7544 73.9775Z" fill="#00783E"/>
<path d="M57.4292 76.4133C67.6402 76.4133 75.9179 68.1357 75.9179 57.9246C75.9179 47.7136 67.6402 39.4359 57.4292 39.4359C47.2181 39.4359 38.9404 47.7136 38.9404 57.9246C38.9404 68.1357 47.2181 76.4133 57.4292 76.4133Z" fill="#00783E"/>
<path d="M75.9184 79.2054C86.1295 79.2054 94.4072 70.9277 94.4072 60.7167C94.4072 50.5056 86.1295 42.228 75.9184 42.228C65.7074 42.228 57.4297 50.5056 57.4297 60.7167C57.4297 70.9277 65.7074 79.2054 75.9184 79.2054Z" fill="#00783E"/>
<path d="M32.3344 77.8092C42.5455 77.8092 50.8232 69.5316 50.8232 59.3205C50.8232 49.1095 42.5455 40.8318 32.3344 40.8318C22.1234 40.8318 13.8457 49.1095 13.8457 59.3205C13.8457 69.5316 22.1234 77.8092 32.3344 77.8092Z" fill="#006132"/>
<path d="M19.5822 77.8095C27.9562 77.8095 34.7446 71.0211 34.7446 62.6472C34.7446 54.2733 27.9562 47.4849 19.5822 47.4849C11.2083 47.4849 4.41992 54.2733 4.41992 62.6472C4.41992 71.0211 11.2083 77.8095 19.5822 77.8095Z" fill="#00783E"/>
<path d="M72.6866 79.8883C81.2902 79.8883 88.2648 72.9137 88.2648 64.3101C88.2648 55.7065 81.2902 48.7319 72.6866 48.7319C64.083 48.7319 57.1084 55.7065 57.1084 64.3101C57.1084 72.9137 64.083 79.8883 72.6866 79.8883Z" fill="#006132"/>
<path d="M12.7755 42.3403C9.77158 45.3442 9.77131 50.2148 12.7755 53.2187C15.7794 56.2226 20.6498 56.2226 23.6537 53.2187L12.7755 42.3403Z" fill="#E94F3D"/>
<path d="M14.8624 44.4269C13.0107 46.2785 13.0107 49.2805 14.8624 51.1321C16.714 52.9838 19.7154 52.9838 21.567 51.1321L14.8624 44.4269Z" fill="#FF8189"/>
<path d="M56.4933 50.1755C53.4894 53.1794 53.4891 58.0498 56.4933 61.054C59.4972 64.0579 64.3673 64.0579 67.3715 61.054L56.4933 50.1755Z" fill="#E94F3D"/>
<path d="M58.5801 52.2621C56.7285 54.1137 56.7285 57.1157 58.5801 58.9671C60.4318 60.8187 63.4332 60.8184 65.2848 58.9671L58.5801 52.2621Z" fill="#FF8189"/>
<path d="M78.0391 52.1629C81.043 55.1668 85.9136 55.1671 88.9175 52.1629C91.9212 49.1587 91.9212 44.2886 88.9175 41.2844L78.0391 52.1629Z" fill="#E94F3D"/>
<path d="M80.126 50.0763C81.9779 51.9279 84.9793 51.9279 86.8312 50.0763C88.6828 48.2246 88.6828 45.2232 86.8312 43.3716L80.126 50.0763Z" fill="#FF8189"/>
<path d="M33.5674 43.4173C33.5674 47.6658 37.0114 51.1098 41.2599 51.1095C45.5081 51.1095 48.9519 47.6658 48.9521 43.4173H33.5674Z" fill="#E94F3D"/>
<path d="M36.5186 43.4173C36.5186 46.0357 38.6411 48.1586 41.2596 48.1586C43.8783 48.1586 46.0005 46.036 46.0005 43.4173H36.5186Z" fill="#FF8189"/>
<path d="M98 59.3205C98 80.7652 80.6156 98.1496 59.1709 98.1496H38.8291C17.3844 98.1496 0 80.7652 0 59.3205H98Z" fill="#F2D383"/>
<path d="M3.95703 76.4131C6.00211 80.5779 8.76994 84.323 12.0991 87.4838H85.9C89.2292 84.323 91.997 80.5779 94.0421 76.4131H3.95703Z" fill="#D9A460"/>
</g>
<defs>
<clipPath id="clip0_543_1157">
<rect width="98" height="98" fill="white"/>
</clipPath>
</defs>
</svg>
