<svg width="98" height="98" viewBox="0 0 98 98" fill="none" xmlns="http://www.w3.org/2000/svg">
<g clip-path="url(#clip0_542_861)">
<path d="M58.1875 0H36.75C33.5011 0 30.3853 1.29062 28.0879 3.58794C25.7906 5.88526 24.5 9.0011 24.5 12.25V24.5C24.5 27.7489 25.7906 30.8647 28.0879 33.1621C30.3853 35.4594 33.5011 36.75 36.75 36.75H58.1875C61.4364 36.75 64.5522 35.4594 66.8496 33.1621C69.1469 30.8647 70.4375 27.7489 70.4375 24.5V12.25C70.4375 9.0011 69.1469 5.88526 66.8496 3.58794C64.5522 1.29062 61.4364 0 58.1875 0ZM67.375 22.9688C67.375 25.8115 66.2457 28.5379 64.2356 30.5481C62.2254 32.5582 59.499 33.6875 56.6562 33.6875H38.2812C35.4385 33.6875 32.7121 32.5582 30.7019 30.5481C28.6918 28.5379 27.5625 25.8115 27.5625 22.9688V13.7813C27.5625 10.9385 28.6918 8.2121 30.7019 6.20195C32.7121 4.19179 35.4385 3.0625 38.2812 3.0625H56.6562C59.499 3.0625 62.2254 4.19179 64.2356 6.20195C66.2457 8.2121 67.375 10.9385 67.375 13.7813V22.9688Z" fill="#434854"/>
<path d="M67.375 22.9687C67.375 25.8115 66.2457 28.5379 64.2356 30.548C62.2254 32.5582 59.499 33.6875 56.6562 33.6875H38.2812C35.4385 33.6875 32.7121 32.5582 30.7019 30.548C28.6918 28.5379 27.5625 25.8115 27.5625 22.9687V13.7812C27.5625 10.9385 28.6918 8.2121 30.7019 6.20195C32.7121 4.19179 35.4385 3.0625 38.2812 3.0625H56.6562C59.499 3.0625 62.2254 4.19179 64.2356 6.20195C66.2457 8.2121 67.375 10.9385 67.375 13.7812V22.9687Z" fill="#EAEAEA"/>
<path d="M69.7791 28.2791C69.7117 28.4935 69.6627 28.7171 69.5831 28.9253C69.335 29.5562 69.0257 30.1503 68.6827 30.7291C68.6674 30.7567 68.6551 30.7843 68.6368 30.8088C67.5565 32.6172 66.0262 34.115 64.195 35.1562C62.3638 36.1974 60.294 36.7465 58.1875 36.75H36.75C34.6439 36.7462 32.5746 36.1974 30.7435 35.1568C28.9124 34.1162 27.3818 32.6193 26.3008 30.8118L26.2579 30.7353C25.9082 30.1574 25.6061 29.5521 25.3544 28.9253C25.2748 28.7171 25.2258 28.4935 25.1554 28.2791C24.9992 27.7983 24.8308 27.3267 24.7328 26.8244C24.5786 26.0592 24.5007 25.2806 24.5 24.5V45.9375C24.5 49.1864 25.7906 52.3022 28.0879 54.5996C30.3853 56.8969 33.5011 58.1875 36.75 58.1875H58.1875C61.4364 58.1875 64.5522 56.8969 66.8496 54.5996C69.1469 52.3022 70.4375 49.1864 70.4375 45.9375V24.5C70.4375 25.2993 70.3548 26.0741 70.2048 26.8275C70.1068 27.3298 69.9383 27.8014 69.7791 28.2791Z" fill="#434854"/>
<path d="M69.7791 28.2791C69.7117 28.4935 69.6627 28.7171 69.5831 28.9253C69.335 29.5562 69.0257 30.1503 68.6827 30.7291C68.6674 30.7567 68.6551 30.7843 68.6368 30.8088C67.5565 32.6172 66.0262 34.115 64.195 35.1562C62.3638 36.1974 60.294 36.7465 58.1875 36.75H36.75C34.6439 36.7462 32.5746 36.1974 30.7435 35.1568C28.9124 34.1162 27.3818 32.6193 26.3008 30.8118L26.2579 30.7353C25.9082 30.1574 25.6061 29.5521 25.3544 28.9253C25.2748 28.7171 25.2258 28.4935 25.1554 28.2791C24.9992 27.7983 24.8308 27.3267 24.7328 26.8244C24.5786 26.0592 24.5007 25.2806 24.5 24.5V45.9375C24.5 49.1864 25.7906 52.3022 28.0879 54.5996C30.3853 56.8969 33.5011 58.1875 36.75 58.1875H58.1875C61.4364 58.1875 64.5522 56.8969 66.8496 54.5996C69.1469 52.3022 70.4375 49.1864 70.4375 45.9375V24.5C70.4375 25.2993 70.3548 26.0741 70.2048 26.8275C70.1068 27.3298 69.9383 27.8014 69.7791 28.2791Z" fill="black"/>
<path d="M64.3125 56.4878V35.084C63.3662 35.6414 62.3372 36.064 61.25 36.3488V57.7526C62.3246 57.4751 63.3553 57.0494 64.3125 56.4878Z" fill="white"/>
<path d="M33.6875 18.375C33.6875 19.5815 34.044 20.7762 34.7365 21.8909C35.4291 23.0056 36.4442 24.0184 37.7239 24.8715C39.0036 25.7247 40.5229 26.4014 42.1949 26.8631C43.8669 27.3249 45.659 27.5625 47.4688 27.5625C49.2785 27.5625 51.0706 27.3249 52.7426 26.8631C54.4146 26.4014 55.9339 25.7247 57.2136 24.8715C58.4933 24.0184 59.5084 23.0056 60.201 21.8909C60.8935 20.7762 61.25 19.5815 61.25 18.375C61.25 15.9383 59.798 13.6014 57.2136 11.8785C54.6291 10.1555 51.1238 9.1875 47.4688 9.1875C43.8137 9.1875 40.3084 10.1555 37.7239 11.8785C35.1395 13.6014 33.6875 15.9383 33.6875 18.375Z" fill="#EF4D4D"/>
<path d="M33.6875 39.8125H12.25C9.0011 39.8125 5.88526 41.1031 3.58794 43.4004C1.29062 45.6978 0 48.8136 0 52.0625V64.3125C0 67.5614 1.29062 70.6772 3.58794 72.9746C5.88526 75.2719 9.0011 76.5625 12.25 76.5625H33.6875C36.9364 76.5625 40.0522 75.2719 42.3496 72.9746C44.6469 70.6772 45.9375 67.5614 45.9375 64.3125V52.0625C45.9375 48.8136 44.6469 45.6978 42.3496 43.4004C40.0522 41.1031 36.9364 39.8125 33.6875 39.8125ZM42.875 62.7813C42.875 65.624 41.7457 68.3504 39.7356 70.3606C37.7254 72.3707 34.999 73.5 32.1562 73.5H13.7812C10.9385 73.5 8.2121 72.3707 6.20195 70.3606C4.19179 68.3504 3.0625 65.624 3.0625 62.7813V53.5938C3.0625 50.751 4.19179 48.0246 6.20195 46.0145C8.2121 44.0043 10.9385 42.875 13.7812 42.875H32.1562C34.999 42.875 37.7254 44.0043 39.7356 46.0145C41.7457 48.0246 42.875 50.751 42.875 53.5938V62.7813Z" fill="#434854"/>
<path d="M42.875 62.7812C42.875 65.624 41.7457 68.3504 39.7356 70.3606C37.7254 72.3707 34.999 73.5 32.1562 73.5H13.7812C10.9385 73.5 8.2121 72.3707 6.20195 70.3606C4.19179 68.3504 3.0625 65.624 3.0625 62.7812V53.5937C3.0625 50.751 4.19179 48.0246 6.20195 46.0144C8.2121 44.0043 10.9385 42.875 13.7812 42.875H32.1562C34.999 42.875 37.7254 44.0043 39.7356 46.0144C41.7457 48.0246 42.875 50.751 42.875 53.5937V62.7812Z" fill="#EAEAEA"/>
<path d="M45.2791 68.0916C45.2117 68.306 45.1627 68.5296 45.0831 68.7378C44.835 69.3687 44.5257 69.9628 44.1827 70.5416C44.1674 70.5692 44.1551 70.5967 44.1368 70.6212C43.0565 72.4297 41.5262 73.9275 39.695 74.9687C37.8638 76.0099 35.794 76.559 33.6875 76.5625H12.25C10.1439 76.5587 8.07459 76.0099 6.24349 74.9693C4.41238 73.9287 2.88183 72.4318 1.80075 70.6243L1.75787 70.5477C1.40762 69.9713 1.10545 69.367 0.854438 68.7409C0.774813 68.5326 0.725812 68.306 0.655375 68.0947C0.499187 67.6139 0.333813 67.1392 0.23275 66.6369C0.0786316 65.8717 0.000667893 65.0931 0 64.3125V85.75C0 88.9989 1.29062 92.1147 3.58794 94.4121C5.88526 96.7094 9.0011 98 12.25 98H33.6875C36.9364 98 40.0522 96.7094 42.3496 94.4121C44.6469 92.1147 45.9375 88.9989 45.9375 85.75V64.3125C45.9375 65.1118 45.8548 65.8866 45.7048 66.64C45.6068 67.1423 45.4383 67.6139 45.2791 68.0916Z" fill="#434854"/>
<path d="M45.2791 68.0916C45.2117 68.306 45.1627 68.5296 45.0831 68.7378C44.835 69.3687 44.5257 69.9628 44.1827 70.5416C44.1674 70.5692 44.1551 70.5967 44.1368 70.6212C43.0565 72.4297 41.5262 73.9275 39.695 74.9687C37.8638 76.0099 35.794 76.559 33.6875 76.5625H12.25C10.1439 76.5587 8.07459 76.0099 6.24349 74.9693C4.41238 73.9287 2.88183 72.4318 1.80075 70.6243L1.75787 70.5477C1.40762 69.9713 1.10545 69.367 0.854438 68.7409C0.774813 68.5326 0.725812 68.306 0.655375 68.0947C0.499187 67.6139 0.333813 67.1392 0.23275 66.6369C0.0786316 65.8717 0.000667893 65.0931 0 64.3125V85.75C0 88.9989 1.29062 92.1147 3.58794 94.4121C5.88526 96.7094 9.0011 98 12.25 98H33.6875C36.9364 98 40.0522 96.7094 42.3496 94.4121C44.6469 92.1147 45.9375 88.9989 45.9375 85.75V64.3125C45.9375 65.1118 45.8548 65.8866 45.7048 66.64C45.6068 67.1423 45.4383 67.6139 45.2791 68.0916Z" fill="black"/>
<path d="M39.8125 96.3003V74.8965C38.8662 75.4539 37.8372 75.8765 36.75 76.1613V97.5651C37.8246 97.2876 38.8553 96.8619 39.8125 96.3003Z" fill="white"/>
<path d="M9.1875 58.1875C9.1875 60.6242 10.6394 62.9611 13.2239 64.684C15.8084 66.407 19.3137 67.375 22.9688 67.375C26.6238 67.375 30.1291 66.407 32.7136 64.684C35.2981 62.9611 36.75 60.6242 36.75 58.1875C36.75 55.7508 35.2981 53.4139 32.7136 51.691C30.1291 49.968 26.6238 49 22.9688 49C19.3137 49 15.8084 49.968 13.2239 51.691C10.6394 53.4139 9.1875 55.7508 9.1875 58.1875Z" fill="#EF4D4D"/>
<path d="M85.75 39.8125H64.3125C61.0636 39.8125 57.9478 41.1031 55.6504 43.4004C53.3531 45.6978 52.0625 48.8136 52.0625 52.0625V64.3125C52.0625 67.5614 53.3531 70.6772 55.6504 72.9746C57.9478 75.2719 61.0636 76.5625 64.3125 76.5625H85.75C88.9989 76.5625 92.1147 75.2719 94.4121 72.9746C96.7094 70.6772 98 67.5614 98 64.3125V52.0625C98 48.8136 96.7094 45.6978 94.4121 43.4004C92.1147 41.1031 88.9989 39.8125 85.75 39.8125ZM94.9375 62.7813C94.9375 65.624 93.8082 68.3504 91.7981 70.3606C89.7879 72.3707 87.0615 73.5 84.2188 73.5H65.8438C63.001 73.5 60.2746 72.3707 58.2645 70.3606C56.2543 68.3504 55.125 65.624 55.125 62.7813V53.5938C55.125 50.751 56.2543 48.0246 58.2645 46.0145C60.2746 44.0043 63.001 42.875 65.8438 42.875H84.2188C87.0615 42.875 89.7879 44.0043 91.7981 46.0145C93.8082 48.0246 94.9375 50.751 94.9375 53.5938V62.7813Z" fill="#434854"/>
<path d="M94.9375 62.7812C94.9375 65.624 93.8082 68.3504 91.7981 70.3606C89.7879 72.3707 87.0615 73.5 84.2188 73.5H65.8438C63.001 73.5 60.2746 72.3707 58.2645 70.3606C56.2543 68.3504 55.125 65.624 55.125 62.7812V53.5937C55.125 50.751 56.2543 48.0246 58.2645 46.0144C60.2746 44.0043 63.001 42.875 65.8438 42.875H84.2188C87.0615 42.875 89.7879 44.0043 91.7981 46.0144C93.8082 48.0246 94.9375 50.751 94.9375 53.5937V62.7812Z" fill="#EAEAEA"/>
<path d="M97.3416 68.0916C97.2742 68.306 97.2252 68.5296 97.1456 68.7378C96.8975 69.3687 96.5882 69.9628 96.2452 70.5416C96.2299 70.5692 96.2176 70.5967 96.1993 70.6212C95.119 72.4297 93.5887 73.9275 91.7575 74.9687C89.9263 76.0099 87.8565 76.559 85.75 76.5625H64.3125C62.2064 76.5587 60.1371 76.0099 58.306 74.9693C56.4749 73.9287 54.9443 72.4318 53.8633 70.6243L53.8204 70.5477C53.4701 69.9713 53.168 69.367 52.9169 68.7409C52.8373 68.5326 52.7883 68.306 52.7179 68.0947C52.5617 67.6139 52.3963 67.1392 52.2953 66.6369C52.1411 65.8717 52.0632 65.0931 52.0625 64.3125V85.75C52.0625 88.9989 53.3531 92.1147 55.6504 94.4121C57.9478 96.7094 61.0636 98 64.3125 98H85.75C88.9989 98 92.1147 96.7094 94.4121 94.4121C96.7094 92.1147 98 88.9989 98 85.75V64.3125C98 65.1118 97.9173 65.8866 97.7673 66.64C97.6693 67.1423 97.5008 67.6139 97.3416 68.0916Z" fill="#434854"/>
<path d="M97.3416 68.0916C97.2742 68.306 97.2252 68.5296 97.1456 68.7378C96.8975 69.3687 96.5882 69.9628 96.2452 70.5416C96.2299 70.5692 96.2176 70.5967 96.1993 70.6212C95.119 72.4297 93.5887 73.9275 91.7575 74.9687C89.9263 76.0099 87.8565 76.559 85.75 76.5625H64.3125C62.2064 76.5587 60.1371 76.0099 58.306 74.9693C56.4749 73.9287 54.9443 72.4318 53.8633 70.6243L53.8204 70.5477C53.4701 69.9713 53.168 69.367 52.9169 68.7409C52.8373 68.5326 52.7883 68.306 52.7179 68.0947C52.5617 67.6139 52.3963 67.1392 52.2953 66.6369C52.1411 65.8717 52.0632 65.0931 52.0625 64.3125V85.75C52.0625 88.9989 53.3531 92.1147 55.6504 94.4121C57.9478 96.7094 61.0636 98 64.3125 98H85.75C88.9989 98 92.1147 96.7094 94.4121 94.4121C96.7094 92.1147 98 88.9989 98 85.75V64.3125C98 65.1118 97.9173 65.8866 97.7673 66.64C97.6693 67.1423 97.5008 67.6139 97.3416 68.0916Z" fill="black"/>
<path d="M91.875 96.3003V74.8965C90.9287 75.4539 89.8997 75.8765 88.8125 76.1613V97.5651C89.8871 97.2876 90.9178 96.8619 91.875 96.3003Z" fill="white"/>
<path d="M61.25 58.1875C61.25 60.6242 62.702 62.9611 65.2864 64.684C67.8709 66.407 71.3762 67.375 75.0312 67.375C78.6863 67.375 82.1916 66.407 84.7761 64.684C87.3605 62.9611 88.8125 60.6242 88.8125 58.1875C88.8125 55.7508 87.3605 53.4139 84.7761 51.691C82.1916 49.968 78.6863 49 75.0312 49C71.3762 49 67.8709 49.968 65.2864 51.691C62.702 53.4139 61.25 55.7508 61.25 58.1875Z" fill="#EF4D4D"/>
</g>
<defs>
<clipPath id="clip0_542_861">
<rect width="98" height="98" fill="white"/>
</clipPath>
</defs>
</svg>
