<svg width="40" height="40" viewBox="0 0 40 40" fill="none" xmlns="http://www.w3.org/2000/svg">
<g clip-path="url(#clip0_705_52)">
<mask id="mask0_705_52" style="mask-type:luminance" maskUnits="userSpaceOnUse" x="0" y="0" width="40" height="40">
<path d="M40 0H0V40H40V0Z" fill="white"/>
</mask>
<g mask="url(#mask0_705_52)">
<path fill-rule="evenodd" clip-rule="evenodd" d="M35.922 18.1387L30.6113 27.124L30.078 35.8066L4.7793 21.5414L12.2112 16.7494L17.5232 7.76273C20.4566 2.8014 26.9539 1.1 32.0326 3.96666C37.1139 6.83066 38.8553 13.176 35.922 18.1387ZM14.1086 34.2907C12.2032 33.216 11.5499 30.8374 12.6499 28.976L19.5499 32.8667C18.4499 34.728 16.0139 35.364 14.1086 34.2907ZM33.3619 1.7187C27.0112 -1.8613 18.8899 0.262666 15.2232 6.46666L9.91258 15.452L0.00195312 21.844L10.3512 27.68C8.51791 30.7814 9.60458 34.7466 12.7806 36.536C15.9566 38.328 20.0166 37.2654 21.8499 34.164L32.198 40L32.9113 28.42L38.2219 19.4347C41.8886 13.232 39.7126 5.30136 33.3619 1.7187Z" fill="#FF7255"/>
</g>
</g>
<defs>
<clipPath id="clip0_705_52">
<rect width="40" height="40" fill="white"/>
</clipPath>
</defs>
</svg>
