<svg width="40" height="40" viewBox="0 0 40 40" fill="none" xmlns="http://www.w3.org/2000/svg">
<path d="M21.6012 30.4631H5.44507C4.45414 30.4631 3.65039 31.1033 3.65039 31.8929V31.9347C3.65039 32.7244 4.45382 33.3639 5.44507 33.3639H21.6012C22.5928 33.3639 23.3965 32.7244 23.3965 31.9347V31.8929C23.3964 31.1033 22.5927 30.4631 21.6012 30.4631Z" fill="#FF7255"/>
<path d="M7.64813 22.1765C7.36344 22.1765 7.13281 22.4073 7.13281 22.6921C7.13281 22.9773 7.36344 23.2082 7.64813 23.2082C7.93336 23.2082 8.16454 22.9773 8.16454 22.6921C8.16461 22.4073 7.93336 22.1765 7.64813 22.1765Z" fill="#FF7255"/>
<path d="M11.5163 22.1765C11.2313 22.1765 11 22.4073 11 22.6921C11 22.9773 11.2313 23.2082 11.5163 23.2082C11.8008 23.2082 12.0318 22.9773 12.0318 22.6921C12.0318 22.4073 11.8008 22.1765 11.5163 22.1765Z" fill="#FF7255"/>
<path d="M9.71081 20.6293C9.4259 20.6293 9.19531 20.8596 9.19531 21.1449C9.19531 21.4301 9.4259 21.6609 9.71081 21.6609C9.99556 21.6609 10.2264 21.4301 10.2264 21.1449C10.2264 20.8596 9.99556 20.6293 9.71081 20.6293Z" fill="#FF7255"/>
<path d="M12.5469 20.5004C12.5469 20.7851 12.7779 21.0154 13.0625 21.0154C13.3475 21.0154 13.5784 20.7851 13.5784 20.5004C13.5784 20.2152 13.3475 19.9849 13.0625 19.9849C12.7779 19.9849 12.5469 20.2152 12.5469 20.5004Z" fill="#FF7255"/>
<path d="M14.9983 23.3369C15.2838 23.3369 15.5144 23.106 15.5144 22.8208C15.5144 22.5361 15.2838 22.3053 14.9983 22.3053C14.7136 22.3053 14.4824 22.5361 14.4824 22.8208C14.4823 23.106 14.7135 23.3369 14.9983 23.3369Z" fill="#FF7255"/>
<path d="M16.6744 21.6551C16.959 21.6551 17.1896 21.4236 17.1896 21.1385C17.1896 20.8537 16.959 20.6228 16.6744 20.6228C16.3895 20.6228 16.1582 20.8537 16.1582 21.1385C16.1582 21.4236 16.3895 21.6551 16.6744 21.6551Z" fill="#FF7255"/>
<path d="M19.2522 23.3369C19.5369 23.3369 19.7681 23.106 19.7681 22.8208C19.7681 22.5361 19.5369 22.3053 19.2522 22.3053C18.9678 22.3053 18.7363 22.5361 18.7363 22.8208C18.7363 23.106 18.9678 23.3369 19.2522 23.3369Z" fill="#FF7255"/>
<path d="M23.5607 28.5311C23.6159 28.5151 23.6794 28.5045 23.7659 28.5045C24.1214 28.5045 24.4099 28.2163 24.4099 27.8601C24.4099 27.5041 24.1214 27.2153 23.7657 27.2153C23.5385 27.2153 23.3232 27.2501 23.1287 27.3146C22.9586 27.3711 22.8051 27.4497 22.6722 27.5383C22.4392 27.6936 22.2662 27.8737 22.1227 28.0361C22.0148 28.1584 21.9225 28.2723 21.8377 28.3681C21.7119 28.5134 21.6042 28.6136 21.5079 28.6716C21.4592 28.6999 21.4131 28.7211 21.3584 28.7365C21.3042 28.7519 21.2397 28.7625 21.1542 28.7625C21.0546 28.7625 20.9841 28.7489 20.9235 28.7288C20.8707 28.7117 20.824 28.6881 20.7738 28.6551C20.6867 28.5984 20.5896 28.5051 20.478 28.3781C20.3944 28.2836 20.3029 28.1708 20.1962 28.048C20.0365 27.8672 19.8407 27.6605 19.5641 27.4928C19.4265 27.4089 19.2694 27.3381 19.0967 27.2891C18.9244 27.2406 18.7379 27.2152 18.5427 27.2152C18.3157 27.2152 18.1007 27.2495 17.9058 27.3145C17.7355 27.3711 17.5825 27.4496 17.4496 27.5382C17.2157 27.6936 17.0433 27.8736 16.9001 28.0361C16.7917 28.1583 16.6999 28.2723 16.6148 28.368C16.4882 28.5133 16.3819 28.6136 16.2853 28.6715C16.2363 28.6998 16.1902 28.7211 16.1359 28.7364C16.0817 28.7518 16.0169 28.7624 15.9312 28.7624C15.8315 28.7624 15.7612 28.7488 15.7009 28.7287C15.6478 28.7111 15.6011 28.6875 15.5509 28.655C15.4644 28.5983 15.3676 28.505 15.2557 28.3781C15.1715 28.2836 15.0806 28.1707 14.974 28.0491C14.8143 27.8672 14.6179 27.6605 14.3421 27.4928C14.2042 27.4089 14.0474 27.3381 13.8744 27.2891C13.7022 27.2406 13.5154 27.2146 13.3206 27.2152C13.0935 27.2146 12.8782 27.2495 12.6839 27.3145C12.5139 27.3705 12.3607 27.4491 12.2272 27.5382C11.9942 27.6936 11.8215 27.8731 11.6773 28.0361C11.5698 28.1583 11.4782 28.2723 11.3935 28.368C11.2669 28.5133 11.1594 28.6136 11.0634 28.6715C11.015 28.6998 10.969 28.7211 10.9144 28.7364C10.8592 28.7518 10.7951 28.7624 10.7094 28.7624C10.6096 28.7624 10.5394 28.7488 10.4788 28.7287C10.4262 28.7111 10.3793 28.6875 10.3297 28.6544C10.2426 28.5983 10.146 28.5049 10.0338 28.3781C9.94958 28.2829 9.85866 28.1701 9.75208 28.0491C9.59233 27.8672 9.396 27.6605 9.11958 27.4928C8.98258 27.4089 8.82525 27.3381 8.65308 27.2891C8.48033 27.2406 8.29375 27.2146 8.09851 27.2152C7.87149 27.2146 7.6568 27.2495 7.46164 27.3145C7.29156 27.3705 7.1389 27.4491 7.0057 27.5376C6.77211 27.6936 6.6 27.8731 6.45562 28.0361C6.34781 28.1584 6.25601 28.2723 6.17187 28.3681C6.04516 28.5134 5.93805 28.6136 5.84172 28.6716C5.79297 28.6999 5.74687 28.7211 5.69226 28.7365C5.63735 28.7519 5.5736 28.7619 5.48797 28.7625C5.38789 28.7619 5.31789 28.7489 5.25703 28.7288C5.20453 28.7111 5.1575 28.6876 5.10789 28.6545C5.02101 28.5977 4.92367 28.5056 4.81258 28.3781C4.72844 28.283 4.63687 28.1702 4.53031 28.0486C4.37086 27.8673 4.17422 27.6606 3.89844 27.4928C3.7611 27.4089 3.60406 27.3381 3.43125 27.2891C3.25914 27.2406 3.07219 27.2146 2.87672 27.2152C2.52117 27.2152 2.23242 27.504 2.23242 27.8601C2.23242 28.2161 2.52117 28.5044 2.87672 28.5044C2.97719 28.5044 3.04742 28.5186 3.10735 28.5381C3.16047 28.5563 3.20687 28.5795 3.25703 28.6125C3.3436 28.6691 3.44047 28.7612 3.55266 28.8889C3.63625 28.9834 3.72781 29.0967 3.83406 29.2185C3.99414 29.3998 4.19016 29.6064 4.46601 29.7747C4.6036 29.858 4.76101 29.9288 4.93336 29.9773C5.10555 30.0262 5.29219 30.0516 5.48789 30.0516C5.71437 30.0523 5.9293 30.0174 6.12422 29.9531C6.29422 29.8957 6.4475 29.8177 6.58016 29.7291C6.81367 29.5738 6.9864 29.3926 7.13047 29.2307C7.23797 29.1086 7.33008 28.9951 7.41453 28.8982C7.54125 28.7536 7.64781 28.6531 7.74437 28.5952C7.79305 28.567 7.83883 28.5457 7.89406 28.5303C7.94844 28.515 8.01219 28.5043 8.09876 28.5043C8.19821 28.5043 8.2686 28.5186 8.32906 28.538C8.38158 28.5562 8.4285 28.5794 8.47841 28.6124C8.56566 28.6691 8.66241 28.7611 8.77408 28.8888C8.85766 28.9833 8.94916 29.0966 9.05575 29.2184C9.21583 29.3997 9.41191 29.6063 9.688 29.7746C9.82566 29.8586 9.98266 29.9287 10.1548 29.9772C10.3276 30.0261 10.5142 30.0516 10.7094 30.0516C10.9358 30.0522 11.1514 30.0173 11.3457 29.953C11.5164 29.8956 11.6693 29.8176 11.8022 29.7291C12.0357 29.5737 12.2085 29.3925 12.3517 29.2306C12.4601 29.1085 12.5519 28.995 12.6367 28.8981C12.7634 28.7536 12.8702 28.6531 12.9666 28.5951C13.015 28.5669 13.0613 28.5456 13.116 28.5302C13.1703 28.5149 13.2344 28.5042 13.3208 28.5042C13.4204 28.5042 13.4907 28.5185 13.5506 28.5379C13.6037 28.5561 13.6507 28.5793 13.7007 28.6123C13.7871 28.669 13.8842 28.7611 13.9961 28.8887C14.08 28.9832 14.1716 29.0966 14.2778 29.2183C14.4378 29.3996 14.6339 29.6062 14.91 29.7746C15.0476 29.8585 15.2047 29.9286 15.3771 29.9771C15.5499 30.0261 15.7362 30.0515 15.9317 30.0515C16.1582 30.0521 16.3733 30.0173 16.5677 29.9529C16.7383 29.8956 16.8913 29.8176 17.0245 29.729C17.2578 29.5736 17.4308 29.3924 17.5741 29.2306C17.6819 29.1084 17.774 28.9949 17.8584 28.8981C17.9848 28.7535 18.0923 28.653 18.1889 28.5951C18.237 28.5668 18.2833 28.5456 18.338 28.5301C18.3929 28.5148 18.4567 28.5041 18.5429 28.5041C18.6424 28.5041 18.7124 28.5184 18.7732 28.5378C18.8257 28.5561 18.8731 28.5792 18.9223 28.6123C19.0097 28.6689 19.1062 28.7611 19.2185 28.8886C19.3027 28.9831 19.3936 29.0971 19.5007 29.2182C19.6602 29.4001 19.8566 29.6061 20.1323 29.7745C20.2699 29.8584 20.427 29.9286 20.5997 29.9771C20.7722 30.0261 20.9592 30.0521 21.1543 30.0521C21.3811 30.0521 21.5967 30.0172 21.7903 29.9528C21.9607 29.8961 22.1142 29.8175 22.2471 29.7289C22.4807 29.5736 22.6537 29.3923 22.7969 29.2305C22.9044 29.1083 22.9969 28.9948 23.081 28.898C23.2077 28.7534 23.3148 28.6529 23.4111 28.595C23.4597 28.5671 23.5056 28.5458 23.5607 28.5311Z" fill="#FF7255"/>
<path d="M38.0783 9.39808H32.3251L33.5325 3.8457L37.7597 1.39132L36.952 0L32.1107 2.81102L30.6786 9.39808H17.7653L18.4393 18.1796C16.9125 17.6002 15.1881 17.2648 13.3615 17.2648C10.5179 17.2661 7.92273 18.0739 5.93226 19.3607C4.93687 20.0051 4.09125 20.7704 3.44633 21.6272C2.94726 22.2905 2.56992 23.0109 2.34617 23.7686H2.30101L2.18851 24.44C2.18523 24.4607 2.18266 24.4731 2.18117 24.4796L2.18055 24.4832C2.17766 24.4902 2.17141 24.5079 2.16226 24.5386C2.15305 24.5687 2.14242 24.6101 2.13539 24.6496C2.12421 24.7093 2.11914 24.763 2.1168 24.8108C2.11414 24.8593 2.11321 24.9047 2.11321 24.9579C2.11383 25.2159 2.14891 25.4693 2.23461 25.712C2.29836 25.8933 2.39196 26.0675 2.51484 26.2205C2.69789 26.4519 2.94617 26.6297 3.21078 26.7348C3.47656 26.8417 3.75562 26.8842 4.03703 26.8842H22.6853C22.9356 26.8842 23.1833 26.8506 23.4225 26.7684C23.6012 26.7064 23.7748 26.6161 23.9289 26.4962C24.1616 26.3167 24.3434 26.0698 24.453 25.8022C24.5638 25.533 24.6087 25.2477 24.6087 24.9577C24.6083 24.8827 24.6075 24.8231 24.601 24.7493C24.596 24.6949 24.5842 24.6258 24.5688 24.5685C24.557 24.5254 24.5461 24.4958 24.5428 24.4852L24.5419 24.4823C24.5411 24.4787 24.5381 24.4675 24.5337 24.4397C24.3657 23.4352 23.9204 22.4833 23.2767 21.627C22.4889 20.5823 21.4053 19.6717 20.1128 18.9536L19.5028 11.007H36.3409L34.499 34.9947H24.1486C23.9649 34.7905 23.7308 34.6168 23.4623 34.5034C23.1845 34.3847 22.8777 34.3293 22.5612 34.3298H4.16601C3.79101 34.3287 3.42844 34.4078 3.1143 34.5749C2.87891 34.699 2.67578 34.8696 2.51633 35.0633C2.27601 35.3545 2.13039 35.6882 2.0418 36.0266C1.95383 36.3661 1.92023 36.7152 1.91992 37.0683V37.2615C1.91961 38.015 2.22789 38.7047 2.72219 39.1979C3.215 39.6922 3.90476 40.0005 4.65836 39.9999H22.0643C22.8178 40.0006 23.5073 39.6922 24.0004 39.1979C24.4948 38.7047 24.803 38.0151 24.8028 37.2615V37.0683C24.8028 36.9124 24.7959 36.7571 24.7815 36.6035H35.9888L38.0783 9.39808ZM19.9163 20.7107C20.7718 21.2641 21.4763 21.9107 21.9907 22.5946C22.5054 23.279 22.8283 23.9966 22.9468 24.7058C22.9607 24.7885 22.976 24.86 22.9934 24.922C22.9958 24.9286 22.9978 24.935 22.9993 24.9415C22.9993 24.9474 23 24.951 23 24.9581C23 25.0679 22.9841 25.1376 22.9711 25.1747C22.9608 25.2031 22.9531 25.2132 22.9492 25.2179C22.9428 25.2249 22.9439 25.2272 22.9093 25.2432C22.8757 25.2569 22.8031 25.2757 22.6853 25.2757H4.03696C3.9318 25.2757 3.86305 25.261 3.82555 25.2474C3.79687 25.238 3.78594 25.2303 3.78062 25.2262C3.77383 25.2191 3.77117 25.2208 3.75609 25.1878C3.7443 25.1601 3.72921 25.1022 3.72421 25.013L3.77555 24.7059C3.89398 23.9967 4.21703 23.2792 4.73171 22.5947C5.50234 21.5682 6.70476 20.6287 8.19562 19.9561C9.68593 19.2822 11.4593 18.8731 13.3615 18.8736C15.8971 18.8723 18.2055 19.6022 19.9163 20.7107ZM23.1937 37.2617C23.1933 37.5757 23.0685 37.8533 22.8629 38.0601C22.6559 38.2662 22.3784 38.3907 22.0642 38.3914H4.65821C4.34344 38.3907 4.06648 38.2662 3.85976 38.0601C3.65398 37.8533 3.52906 37.5758 3.52875 37.2617V37.0685C3.52875 36.8482 3.54883 36.6503 3.5843 36.4909C3.61117 36.3717 3.64601 36.2742 3.68289 36.2027C3.71031 36.1484 3.73836 36.1088 3.76469 36.0787C3.80539 36.0332 3.83969 36.0084 3.89461 35.9843C3.94953 35.9606 4.03196 35.9394 4.16594 35.9388H22.5611C22.7211 35.9394 22.8047 35.9683 22.8599 35.9972C22.9016 36.0203 22.9326 36.0444 22.9686 36.0876C23.0205 36.1502 23.0808 36.2618 23.1242 36.4319C23.1685 36.5996 23.1942 36.8205 23.1936 37.0685L23.1937 37.2617Z" fill="#FF7255"/>
</svg>
