<svg width="40" height="40" viewBox="0 0 40 40" fill="none" xmlns="http://www.w3.org/2000/svg">
<mask id="mask0_707_118" style="mask-type:luminance" maskUnits="userSpaceOnUse" x="14" y="0" width="26" height="26">
<path d="M40 0H14V26H40V0Z" fill="white"/>
</mask>
<g mask="url(#mask0_707_118)">
<path d="M27.0043 26.0014C26.6881 26.0018 26.3749 25.9399 26.0827 25.8192C25.7905 25.6984 25.5249 25.5212 25.3012 25.2977L19.0966 19.0931C18.0546 18.0569 17.2285 16.8243 16.6661 15.4667C16.1037 14.109 15.8163 12.6532 15.8204 11.1838C15.8163 9.7147 16.1038 8.25952 16.6662 6.90237C17.2286 5.54528 18.0547 4.31323 19.0966 3.27762C20.1324 2.23552 21.3647 1.40923 22.7221 0.846591C24.0795 0.283951 25.535 -0.00386846 27.0043 -0.000205478C28.4736 -0.00408129 29.929 0.283483 31.2863 0.845844C32.6437 1.4082 33.876 2.23419 34.912 3.276C35.954 4.3116 36.78 5.54365 37.3424 6.90075C37.9048 8.25789 38.1923 9.71308 38.1882 11.1821C38.1924 12.6516 37.9049 14.1074 37.3425 15.465C36.7801 16.8227 35.954 18.0553 34.912 19.0915L28.7074 25.2961C28.4839 25.5199 28.2183 25.6974 27.9261 25.8184C27.6339 25.9394 27.3206 26.0016 27.0043 26.0014ZM27.0043 1.6249C25.7485 1.62151 24.5046 1.86724 23.3444 2.34787C22.1843 2.82851 21.1309 3.53449 20.2455 4.42494C18.4559 6.219 17.4508 8.64968 17.4508 11.1838C17.4508 13.7178 18.4559 16.1485 20.2455 17.9426L26.4502 24.1472C26.5977 24.2931 26.7968 24.3749 27.0043 24.3749C27.2118 24.3749 27.4109 24.2931 27.5585 24.1472L33.7631 17.9426C35.5528 16.1485 36.5578 13.7178 36.5578 11.1838C36.5578 8.64968 35.5528 6.219 33.7631 4.42494C32.8776 3.53449 31.8244 2.82851 30.6642 2.34787C29.504 1.86724 28.2601 1.62151 27.0043 1.6249ZM27.0043 16.5092C25.5924 16.5075 24.2389 15.9459 23.2405 14.9475C22.2422 13.9492 21.6806 12.5956 21.6788 11.1838C21.6784 9.77044 22.2391 8.41481 23.2377 7.41473C24.2363 6.4146 25.591 5.85186 27.0043 5.85018C28.4176 5.85186 29.7724 6.4146 30.7709 7.41473C31.7695 8.41481 32.3302 9.77044 32.3297 11.1838C32.3281 12.5956 31.7664 13.9492 30.7681 14.9475C29.7697 15.9459 28.4162 16.5075 27.0043 16.5092ZM27.0043 7.47524C26.023 7.47654 25.0824 7.86702 24.3886 8.56106C23.6949 9.2551 23.3048 10.196 23.304 11.1773C23.3035 12.1594 23.693 13.1015 24.3869 13.7965C25.0807 14.4917 26.0222 14.8828 27.0043 14.8841C27.9853 14.8828 28.9257 14.4925 29.6194 13.7989C30.3131 13.1052 30.7034 12.1647 30.7046 11.1838C30.7055 10.2013 30.3162 9.25878 29.6223 8.56339C28.9284 7.86795 27.9867 7.47654 27.0043 7.47524Z" fill="#FF7255"/>
</g>
<rect y="14" width="26" height="26" rx="13" fill="#FF7255" fill-opacity="0.15"/>
</svg>
