<svg width="40" height="40" viewBox="0 0 40 40" fill="none" xmlns="http://www.w3.org/2000/svg">
<path d="M31.0625 7.71431V5.87952L33.4143 1.17589C33.5401 0.923964 33.5266 0.624813 33.3786 0.385226C33.2306 0.145996 32.9692 0 32.6875 0H29.4375C29.2221 0 29.0154 0.0857188 28.863 0.238063L27.8125 1.28858L26.762 0.238063C26.6096 0.0857188 26.403 0 26.1875 0H21.3125C21.0308 0 20.7694 0.145996 20.6214 0.385226C20.4735 0.624861 20.4599 0.923964 20.5857 1.17589L22.9375 5.87952V7.71431C19.3231 10.3735 16.4375 15.7264 16.4375 19.8884C16.4375 26 21.8072 26 27 26C32.1928 26 37.5625 26 37.5625 19.8884C37.5625 15.7264 34.6769 10.3735 31.0625 7.71431ZM24.5625 6.5H29.4375V7.3125H24.5625V6.5ZM25.8511 1.625L27.2381 3.01199C27.5554 3.32937 28.0696 3.32937 28.387 3.01199L29.7739 1.625H31.3727L29.7477 4.875H24.2523L22.6273 1.625H25.8511ZM27 24.375C20.6491 24.375 18.0625 23.9692 18.0625 19.8884C18.0625 16.6011 20.4413 11.4766 24.0043 8.9375H29.9957C33.5587 11.4766 35.9375 16.6011 35.9375 19.8884C35.9375 23.9692 33.3509 24.375 27 24.375Z" fill="#FF7255"/>
<rect y="14" width="26" height="26" rx="13" fill="#FF7255" fill-opacity="0.15"/>
</svg>
