<svg width="98" height="98" viewBox="0 0 98 98" fill="none" xmlns="http://www.w3.org/2000/svg">
<g clip-path="url(#clip0_543_1271)">
<path d="M77.6315 0.988954C78.3174 0.247255 79.4659 0.199403 80.2076 0.885276C80.9493 1.57115 80.9971 2.71959 80.3112 3.46128L65.3816 19.6192L65.3576 19.6511C63.5313 21.8602 62.2792 23.9019 61.7209 25.7681C61.2264 27.419 61.2982 28.9183 62.0319 30.2263C62.4227 30.9281 62.2951 31.7894 61.7767 32.3556L54.6867 40.0279C53.9929 39.2702 53.4426 38.6561 53.0757 38.2573C52.9082 38.034 52.7168 37.8187 52.5175 37.6113L52.5015 37.6273C52.4058 37.5236 52.3021 37.4279 52.1984 37.3322L58.2596 30.7686C57.5498 28.8705 57.5578 26.8527 58.2118 24.7074C58.9136 22.3786 60.405 19.8983 62.5503 17.3143C62.5982 17.2505 62.6381 17.1867 62.6939 17.1309L77.6156 0.973004L77.6315 0.988954ZM45.563 44.2707C44.8931 43.521 44.9569 42.3646 45.7066 41.6947C46.4563 41.0248 47.6127 41.0886 48.2826 41.8382C55.7873 50.2442 78.9873 75.119 85.4154 84.4181C93.8931 96.4209 80.7658 100.201 76.4113 95.8307C65.5331 85.3114 42.4367 58.4906 32.2842 47.1179C28.6316 48.6651 25.0826 48.9043 21.5176 47.8835C17.6815 46.7909 13.9252 44.2308 10.113 40.299L10.0651 40.2512C7.16215 37.1887 4.8892 34.166 3.2463 31.1753C1.56352 28.0969 0.53471 25.0503 0.167848 22.0277C-0.22294 18.7738 0.0801203 15.7432 0.957399 13.0555C1.98621 9.89732 3.81254 7.22561 6.20512 5.23977C8.61365 3.24595 11.5725 1.95396 14.8742 1.5552C17.6177 1.22821 20.6084 1.50735 23.7028 2.5202C27.9856 3.91587 32.9781 7.38511 37.1172 11.8353C40.1718 15.1131 42.7876 18.9492 44.3428 22.897C45.9618 27.0122 46.4563 31.271 45.1563 35.2586C44.3907 37.6193 43.003 39.8364 40.8497 41.8382C40.108 42.5241 38.9595 42.4763 38.2736 41.7425C37.5878 41.0008 37.6356 39.8524 38.3693 39.1665C40.0362 37.6113 41.1049 35.9126 41.6871 34.1182C42.6919 31.0318 42.2692 27.6104 40.9454 24.2448C39.5577 20.7197 37.205 17.2744 34.4455 14.3156C30.7131 10.312 26.2868 7.20966 22.5544 5.98944C19.9943 5.16002 17.5459 4.92076 15.3049 5.19192C12.705 5.51093 10.3762 6.50783 8.51795 8.06301C6.65173 9.61819 5.22416 11.7157 4.40271 14.2119C3.69291 16.3892 3.44568 18.8934 3.77267 21.597C4.0837 24.1491 4.96896 26.757 6.42045 29.4208C7.94373 32.1563 10.0332 34.9237 12.7209 37.7549L12.7369 37.7788C16.1024 41.2481 19.3324 43.4811 22.5305 44.3903C25.5531 45.2516 28.6316 44.9167 31.8456 43.3137C32.5793 42.891 33.5284 43.0345 34.1106 43.6885C44.0158 54.7821 68.1091 82.7035 78.78 93.0474C83.4136 94.9375 85.9817 92.6087 83.7645 88.5015C80.3112 82.0894 50.6433 49.981 45.563 44.2707ZM35.9449 60.3089L12.689 85.4709C12.6412 85.5187 12.6013 85.5666 12.5455 85.6144C9.14799 89.2831 15.1613 94.6265 18.8938 91.0536L41.4797 66.6094L43.9042 69.3609L21.4937 93.6136C21.4458 93.6694 21.398 93.7173 21.3342 93.7731C19.9943 94.8976 18.6465 95.6314 17.2828 95.9344C15.8791 96.2534 14.4994 96.1099 13.1755 95.4878C12.9522 95.4001 12.7448 95.2884 12.5614 95.1209L9.34737 92.1462C9.29952 92.0983 9.25167 92.0584 9.20382 92.0026C7.95968 90.5671 7.36951 89.0358 7.52901 87.4168C7.68054 85.8856 8.49402 84.3942 10.0332 82.9587L33.5124 57.5495L35.9449 60.3089ZM60.3173 46.2246L61.697 44.7333C62.3829 43.9916 63.5393 43.9437 64.273 44.6296C65.0067 45.3154 65.0625 46.4639 64.3767 47.2056L62.7816 48.9282L60.3173 46.2246ZM83.302 6.3244C83.9878 5.5827 85.1363 5.53485 85.878 6.22073C86.6197 6.9066 86.6675 8.05503 85.9817 8.79673L72.8942 22.9688C72.2084 23.7105 71.0599 23.7583 70.3182 23.0725C69.5765 22.3866 69.5287 21.2381 70.2146 20.4964L83.302 6.3244ZM88.9644 11.5641C89.6503 10.8224 90.7987 10.7746 91.5404 11.4605C92.2821 12.1463 92.33 13.2948 91.6441 14.0365L78.5647 28.2005C77.8788 28.9422 76.7303 28.9901 75.9886 28.3042C75.2469 27.6183 75.1991 26.4699 75.885 25.7282L88.9644 11.5641ZM94.8342 17.0113C95.5201 16.2696 96.6685 16.2217 97.4102 16.9076C98.1519 17.5934 98.1997 18.7499 97.5139 19.4836L82.5842 35.6494C82.5284 35.7053 82.4725 35.7531 82.4167 35.8089C79.0192 39.0788 75.7733 40.9689 72.6709 41.5033C69.3054 42.0855 66.219 41.1284 63.3877 38.6561C62.6301 37.9942 62.5583 36.8377 63.2123 36.0881C63.8742 35.3304 65.0306 35.2586 65.7803 35.9126C67.7343 37.6193 69.8238 38.2892 72.0329 37.8985C74.4095 37.4917 77.0254 35.9206 79.8806 33.1691L79.8965 33.1532L94.8182 17.0033L94.8342 17.0113Z" fill="black"/>
</g>
<defs>
<clipPath id="clip0_543_1271">
<rect width="98" height="98" fill="white"/>
</clipPath>
</defs>
</svg>
