<svg width="107" height="98" viewBox="0 0 107 98" fill="none" xmlns="http://www.w3.org/2000/svg">
<path fill-rule="evenodd" clip-rule="evenodd" d="M53.209 6.92543C40.2764 -3.1401 21.5393 -2.23425 9.65328 9.64738C-3.21776 22.5184 -3.21776 43.419 9.65328 56.2901L50.0737 96.7105C51.7931 98.4298 54.5766 98.4298 56.296 96.7105L96.7164 56.2901C109.587 43.419 109.587 22.5184 96.7164 9.64738C84.8875 -2.18148 66.1504 -3.01698 53.209 6.92543ZM53.1914 17.1625C55.1175 17.1273 56.1245 16.0279 56.2828 15.8916C66.6385 6.87705 81.0882 6.4593 90.4985 15.8696C99.9352 25.3063 99.9352 40.6311 90.4985 50.0722L53.1826 87.3837L15.8711 50.0722C6.43442 40.6311 6.43442 25.3063 15.8711 15.8696C25.3122 6.42852 40.6414 6.43292 50.0825 15.874C50.9048 16.6963 52.0261 17.1625 53.1914 17.1625Z" fill="black"/>
</svg>
